<svg width="134" height="40" viewBox="0 0 134 40" fill="none" xmlns="http://www.w3.org/2000/svg">
<path d="M18.1118 4.35259C17.9934 4.4562 17.9166 4.54564 17.8206 4.60454C15.8049 5.84359 14.2452 7.55709 12.8453 9.42602C11.7645 10.8789 10.8081 12.4203 9.98601 14.0337V14.0375C9.95602 14.0877 9.72151 14.4793 9.36649 15.2144C9.28578 15.3824 9.19888 15.5685 9.10581 15.7729C8.88385 16.2609 8.6319 16.8527 8.36358 17.5469C8.31777 17.6647 8.27196 17.7858 8.22506 17.9101C7.94802 18.6496 7.65626 19.4949 7.36449 20.446H7.35195C7.28578 20.6761 7.22125 20.9061 7.15835 21.1359C7.15344 21.1522 7.14908 21.168 7.14472 21.1839C7.07927 21.41 7.02474 21.6154 6.98111 21.8001C6.10854 25.1524 5.621 28.5336 6.40413 32.0457C2.06474 28.7092 -0.842541 21.7341 1.62573 14.7438C1.62573 14.7438 2.41268 12.7314 3.10419 11.6805C5.61882 7.4153 11.3799 3.594 18.1118 4.35259Z" fill="#030B1D"/>
<path d="M7.14212 21.1865C7.08577 21.3919 7.03123 21.5974 6.97852 21.8028C7.02433 21.6181 7.07886 21.4127 7.14212 21.1865Z" fill="#030B1D"/>
<path d="M19.2947 27.7677C19.0449 28.7668 18.5541 29.6552 17.8926 30.4492C17.0429 31.4717 16.1322 32.4305 15.0682 33.2349C14.339 33.7862 13.5559 34.2345 12.6817 34.517C10.9736 35.0684 9.53936 34.4957 8.69025 32.9077C8.24687 32.0782 8.03037 31.1811 7.92675 30.2556C7.71515 28.3801 7.8324 26.5156 8.21088 24.675C8.43448 23.5843 8.72788 22.5083 9.00492 21.429C9.00473 21.428 9.00473 21.4269 9.00492 21.4258C9.05254 21.2418 9.09926 21.058 9.14507 20.8744C9.17507 20.7539 9.2067 20.6339 9.25414 20.449H9.24978C9.40521 19.9239 9.65007 19.1909 10.0291 18.2578C11.7197 18.976 13.4054 19.697 15.1009 20.4011C16.1867 20.8521 17.1967 21.4051 17.9885 22.2945C19.4043 23.8831 19.8111 25.7226 19.2947 27.7677Z" fill="#030B1D"/>
<path d="M25.0863 12.4585C25.0405 13.4762 24.9451 14.49 24.5895 15.4531C23.8173 17.5456 22.3743 18.9068 20.1722 19.3982C18.9086 19.6801 17.6728 19.4969 16.4921 19.0191C14.6439 18.2725 12.8142 17.4774 10.9753 16.7014C10.9279 16.6812 10.8902 16.6381 10.7773 16.5509C10.7921 16.5203 10.8073 16.4898 10.8221 16.4598V16.4565C11.0113 16.0693 11.194 15.6887 11.3811 15.3113L11.4296 15.2147L11.4519 15.1706C11.4843 15.1062 11.517 15.0419 11.5501 14.9775C12.8393 12.4634 14.362 10.1097 16.3623 8.09405C17.1182 7.33056 17.928 6.63305 18.8633 6.09533C19.6895 5.62032 20.5501 5.25548 21.5323 5.2773C22.4665 5.29911 23.2071 5.70267 23.7884 6.40891C24.2203 6.93408 24.4903 7.54761 24.6833 8.19712C25.1 9.59323 25.1502 11.0193 25.0863 12.4585Z" fill="#030B1D"/>
<path d="M14.7695 35.6581C14.9331 35.5326 15.0106 35.4617 15.0967 35.4072C17.2116 34.0864 18.8581 32.2867 20.3 30.2852C20.6606 29.785 21.006 29.2742 21.3361 28.7528C22.1618 27.4549 23.3294 26.6085 24.7822 26.1553C26.0638 25.7555 27.3601 25.7495 28.6357 26.1815C29.2825 26.3996 29.9042 26.6935 30.5379 26.9537C28.1912 32.2196 21.8864 36.403 14.7695 35.6581Z" fill="#030B1D"/>
<path d="M26.5541 7.90332C29.036 10.0084 30.6759 12.5546 31.5768 15.5814C32.6282 19.1158 32.2738 22.8957 31.2616 25.2521C28.5992 24.4281 26.6948 22.8602 26.0878 20.0107C25.9275 19.2571 25.9466 18.5017 26.0878 17.7415C26.3436 16.3699 26.6364 15.0011 26.8 13.6181C27.0111 11.8293 26.9893 10.0324 26.5792 8.25998C26.5612 8.17763 26.5666 8.08765 26.5541 7.90332Z" fill="#030B1D"/>
<path d="M7.14212 21.1865C7.08577 21.3919 7.03123 21.5974 6.97852 21.8028C7.02433 21.6181 7.07886 21.4127 7.14212 21.1865Z" fill="#030B1D"/>
<path d="M10.8207 16.457L10.7773 16.5497C10.7905 16.5179 10.8059 16.4872 10.8207 16.457Z" fill="#030B1D"/>
<path d="M41.5623 30V9H45.1623L56.3223 24.18V9H59.8023V30H56.3223L45.0423 14.64V30H41.5623ZM69.9547 30.36C68.4947 30.36 67.1947 30.03 66.0547 29.37C64.9347 28.69 64.0447 27.76 63.3847 26.58C62.7447 25.4 62.4247 24.04 62.4247 22.5C62.4247 20.96 62.7547 19.6 63.4147 18.42C64.0747 17.24 64.9747 16.32 66.1147 15.66C67.2747 14.98 68.5947 14.64 70.0747 14.64C71.4147 14.64 72.6247 14.99 73.7047 15.69C74.7847 16.37 75.6347 17.36 76.2547 18.66C76.8947 19.96 77.2147 21.51 77.2147 23.31H65.4247L65.8747 22.89C65.8747 23.81 66.0747 24.61 66.4747 25.29C66.8747 25.95 67.4047 26.46 68.0647 26.82C68.7247 27.18 69.4547 27.36 70.2547 27.36C71.1747 27.36 71.9347 27.16 72.5347 26.76C73.1347 26.34 73.6047 25.8 73.9447 25.14L76.9147 26.4C76.4947 27.2 75.9547 27.9 75.2947 28.5C74.6547 29.1 73.8847 29.56 72.9847 29.88C72.1047 30.2 71.0947 30.36 69.9547 30.36ZM66.0847 21.15L65.6047 20.73H74.0647L73.6147 21.15C73.6147 20.33 73.4347 19.66 73.0747 19.14C72.7147 18.6 72.2547 18.2 71.6947 17.94C71.1547 17.66 70.5847 17.52 69.9847 17.52C69.3847 17.52 68.7847 17.66 68.1847 17.94C67.5847 18.2 67.0847 18.6 66.6847 19.14C66.2847 19.66 66.0847 20.33 66.0847 21.15ZM76.9473 30L83.0973 21.42L87.3873 15H91.3473L85.4973 23.28L80.9673 30H76.9473ZM87.7173 30L83.2773 23.28L77.3373 15H81.2973L85.6173 21.42L91.7073 30H87.7173ZM99.478 30.36C97.978 30.36 96.638 30.03 95.458 29.37C94.298 28.69 93.388 27.76 92.728 26.58C92.068 25.4 91.738 24.04 91.738 22.5C91.738 20.96 92.058 19.6 92.698 18.42C93.358 17.24 94.268 16.32 95.428 15.66C96.588 14.98 97.918 14.64 99.418 14.64C100.918 14.64 102.248 14.98 103.408 15.66C104.568 16.32 105.468 17.24 106.108 18.42C106.768 19.6 107.098 20.96 107.098 22.5C107.098 24.04 106.778 25.4 106.138 26.58C105.498 27.76 104.598 28.69 103.438 29.37C102.278 30.03 100.958 30.36 99.478 30.36ZM99.478 27.27C100.298 27.27 101.028 27.07 101.668 26.67C102.308 26.25 102.808 25.69 103.168 24.99C103.528 24.27 103.708 23.44 103.708 22.5C103.708 21.56 103.518 20.74 103.138 20.04C102.778 19.32 102.278 18.76 101.638 18.36C100.998 17.94 100.258 17.73 99.418 17.73C98.578 17.73 97.838 17.93 97.198 18.33C96.558 18.73 96.058 19.29 95.698 20.01C95.338 20.73 95.158 21.56 95.158 22.5C95.158 23.44 95.338 24.27 95.698 24.99C96.078 25.69 96.588 26.25 97.228 26.67C97.888 27.07 98.638 27.27 99.478 27.27ZM111.33 22.02C111.33 20.4 111.64 19.07 112.26 18.03C112.88 16.99 113.68 16.22 114.66 15.72C115.66 15.2 116.7 14.94 117.78 14.94V18.15C116.86 18.15 115.99 18.28 115.17 18.54C114.37 18.78 113.72 19.18 113.22 19.74C112.72 20.3 112.47 21.04 112.47 21.96L111.33 22.02ZM109.11 30V15H112.47V30H109.11ZM128.258 30L128.108 27.18V22.29C128.108 21.27 127.998 20.42 127.778 19.74C127.578 19.04 127.238 18.51 126.758 18.15C126.298 17.77 125.678 17.58 124.898 17.58C124.178 17.58 123.548 17.73 123.008 18.03C122.468 18.33 122.008 18.8 121.628 19.44L118.688 18.36C119.008 17.7 119.428 17.09 119.948 16.53C120.488 15.95 121.158 15.49 121.958 15.15C122.778 14.81 123.758 14.64 124.898 14.64C126.358 14.64 127.578 14.93 128.558 15.51C129.538 16.07 130.258 16.88 130.718 17.94C131.198 19 131.438 20.28 131.438 21.78L131.348 30H128.258ZM123.938 30.36C122.138 30.36 120.738 29.96 119.738 29.16C118.758 28.36 118.268 27.23 118.268 25.77C118.268 24.21 118.788 23.02 119.828 22.2C120.888 21.38 122.358 20.97 124.238 20.97H128.258V23.55H125.318C123.978 23.55 123.038 23.74 122.498 24.12C121.958 24.48 121.688 25 121.688 25.68C121.688 26.26 121.918 26.72 122.378 27.06C122.858 27.38 123.518 27.54 124.358 27.54C125.118 27.54 125.778 27.37 126.338 27.03C126.898 26.69 127.328 26.24 127.628 25.68C127.948 25.12 128.108 24.49 128.108 23.79H129.098C129.098 25.83 128.688 27.44 127.868 28.62C127.048 29.78 125.738 30.36 123.938 30.36Z" fill="#030B1D"/>
</svg>
